<svg width="1704" height="1929" viewBox="0 0 1704 1929" fill="none" xmlns="http://www.w3.org/2000/svg">
<mask id="path-1-inside-1_1_30" fill="white">
<path fill-rule="evenodd" clip-rule="evenodd" d="M1531.01 205.353L1499.69 166.715L1481.89 213.164L1432.76 220.974L1464.09 259.612L1446.29 306.06L1495.42 298.25L1526.74 336.888L1544.54 290.44L1593.67 282.63L1562.34 243.992L1580.14 197.543L1531.01 205.353Z"/>
</mask>
<path fill-rule="evenodd" clip-rule="evenodd" d="M1531.01 205.353L1499.69 166.715L1481.89 213.164L1432.76 220.974L1464.09 259.612L1446.29 306.06L1495.42 298.25L1526.74 336.888L1544.54 290.44L1593.67 282.63L1562.34 243.992L1580.14 197.543L1531.01 205.353Z" fill="#AA7070"/>
<path d="M1499.69 166.715L1501.24 165.456L1499.06 162.765L1497.82 166L1499.69 166.715ZM1531.01 205.353L1529.46 206.613L1530.19 207.51L1531.33 207.329L1531.01 205.353ZM1481.89 213.164L1482.2 215.139L1483.34 214.958L1483.76 213.879L1481.89 213.164ZM1432.76 220.974L1432.45 218.999L1429.03 219.543L1431.21 222.233L1432.76 220.974ZM1464.09 259.612L1465.96 260.328L1466.37 259.249L1465.64 258.352L1464.09 259.612ZM1446.29 306.06L1444.42 305.345L1443.18 308.579L1446.61 308.036L1446.29 306.06ZM1495.42 298.25L1496.97 296.991L1496.24 296.094L1495.1 296.275L1495.42 298.25ZM1526.74 336.888L1525.19 338.148L1527.37 340.839L1528.61 337.604L1526.74 336.888ZM1544.54 290.44L1544.23 288.465L1543.09 288.646L1542.67 289.724L1544.54 290.44ZM1593.67 282.63L1593.98 284.605L1597.4 284.061L1595.22 281.37L1593.67 282.63ZM1562.34 243.992L1560.47 243.276L1560.06 244.354L1560.79 245.251L1562.34 243.992ZM1580.14 197.543L1582.01 198.259L1583.25 195.024L1579.82 195.568L1580.14 197.543ZM1498.13 167.975L1529.46 206.613L1532.57 204.094L1501.24 165.456L1498.13 167.975ZM1483.76 213.879L1501.55 167.431L1497.82 166L1480.02 212.448L1483.76 213.879ZM1433.08 222.949L1482.2 215.139L1481.57 211.188L1432.45 218.999L1433.08 222.949ZM1465.64 258.352L1434.32 219.714L1431.21 222.233L1462.54 260.872L1465.64 258.352ZM1448.16 306.776L1465.96 260.328L1462.22 258.896L1444.42 305.345L1448.16 306.776ZM1495.1 296.275L1445.98 304.085L1446.61 308.036L1495.73 300.225L1495.1 296.275ZM1528.3 335.629L1496.97 296.991L1493.86 299.51L1525.19 338.148L1528.3 335.629ZM1542.67 289.724L1524.87 336.173L1528.61 337.604L1546.41 291.156L1542.67 289.724ZM1593.35 280.654L1544.23 288.465L1544.86 292.415L1593.98 284.605L1593.35 280.654ZM1560.79 245.251L1592.11 283.889L1595.22 281.37L1563.89 242.732L1560.79 245.251ZM1578.27 196.828L1560.47 243.276L1564.21 244.707L1582.01 198.259L1578.27 196.828ZM1531.33 207.329L1580.45 199.518L1579.82 195.568L1530.7 203.378L1531.33 207.329Z" fill="black" mask="url(#path-1-inside-1_1_30)"/>
<mask id="path-3-inside-2_1_30" fill="white">
<path fill-rule="evenodd" clip-rule="evenodd" d="M1038.91 397.348L1049.88 424.973L1079.28 429.29L1060.84 452.599L1071.81 480.224L1042.4 475.908L1023.96 499.218L1012.99 471.592L983.585 467.276L1002.03 443.967L991.061 416.341L1020.47 420.657L1038.91 397.348ZM367.731 1837.05L382.592 1811.31L367.731 1785.57L397.454 1785.57L412.315 1759.83L427.176 1785.57L456.898 1785.57L442.037 1811.31L456.898 1837.05L427.176 1837.05L412.315 1862.8L397.454 1837.05L367.731 1837.05Z"/>
</mask>
<path fill-rule="evenodd" clip-rule="evenodd" d="M1038.91 397.348L1049.88 424.973L1079.28 429.29L1060.84 452.599L1071.81 480.224L1042.4 475.908L1023.96 499.218L1012.99 471.592L983.585 467.276L1002.03 443.967L991.061 416.341L1020.47 420.657L1038.91 397.348ZM367.731 1837.05L382.592 1811.31L367.731 1785.57L397.454 1785.57L412.315 1759.83L427.176 1785.57L456.898 1785.57L442.037 1811.31L456.898 1837.05L427.176 1837.05L412.315 1862.8L397.454 1837.05L367.731 1837.05Z" fill="#70AA7D"/>
<path d="M1049.88 424.973L1048.02 425.711L1048.44 426.785L1049.58 426.952L1049.88 424.973ZM1038.91 397.348L1040.77 396.61L1039.49 393.39L1037.34 396.107L1038.91 397.348ZM1079.28 429.29L1080.85 430.531L1083 427.814L1079.57 427.311L1079.28 429.29ZM1060.84 452.599L1059.27 451.358L1058.56 452.264L1058.98 453.337L1060.84 452.599ZM1071.81 480.224L1071.52 482.203L1074.94 482.706L1073.67 479.487L1071.81 480.224ZM1042.4 475.908L1042.69 473.929L1041.55 473.762L1040.83 474.667L1042.4 475.908ZM1023.96 499.218L1022.1 499.955L1023.38 503.175L1025.53 500.458L1023.96 499.218ZM1012.99 471.592L1014.85 470.854L1014.42 469.781L1013.28 469.613L1012.99 471.592ZM983.585 467.276L982.016 466.035L979.867 468.752L983.294 469.255L983.585 467.276ZM1002.03 443.967L1003.59 445.207L1004.31 444.302L1003.89 443.229L1002.03 443.967ZM991.061 416.341L991.351 414.362L987.924 413.859L989.202 417.079L991.061 416.341ZM1020.47 420.657L1020.18 422.636L1021.32 422.804L1022.04 421.898L1020.47 420.657ZM382.592 1811.31L384.324 1812.31L384.902 1811.31L384.324 1810.31L382.592 1811.31ZM367.731 1837.05L365.999 1836.05L364.267 1839.05L367.731 1839.05L367.731 1837.05ZM367.731 1785.57L367.731 1783.57L364.267 1783.57L365.999 1786.57L367.731 1785.57ZM397.454 1785.57L397.454 1787.57L398.608 1787.57L399.186 1786.57L397.454 1785.57ZM412.315 1759.83L414.047 1758.83L412.315 1755.83L410.583 1758.83L412.315 1759.83ZM427.176 1785.57L425.444 1786.57L426.021 1787.57L427.176 1787.57L427.176 1785.57ZM456.898 1785.57L458.63 1786.57L460.362 1783.57L456.898 1783.57L456.898 1785.57ZM442.037 1811.31L440.305 1810.31L439.728 1811.31L440.305 1812.31L442.037 1811.31ZM456.898 1837.05L456.898 1839.05L460.362 1839.05L458.63 1836.05L456.898 1837.05ZM427.176 1837.05L427.176 1835.05L426.021 1835.05L425.444 1836.05L427.176 1837.05ZM412.315 1862.8L410.583 1863.8L412.315 1866.8L414.047 1863.8L412.315 1862.8ZM397.454 1837.05L399.186 1836.05L398.608 1835.05L397.454 1835.05L397.454 1837.05ZM1051.73 424.236L1040.77 396.61L1037.05 398.086L1048.02 425.711L1051.73 424.236ZM1079.57 427.311L1050.17 422.995L1049.58 426.952L1078.99 431.268L1079.57 427.311ZM1062.41 453.84L1080.85 430.531L1077.71 428.049L1059.27 451.358L1062.41 453.84ZM1073.67 479.487L1062.7 451.861L1058.98 453.337L1069.95 480.962L1073.67 479.487ZM1042.11 477.887L1071.52 482.203L1072.1 478.246L1042.69 473.929L1042.11 477.887ZM1025.53 500.458L1043.97 477.149L1040.83 474.667L1022.39 497.977L1025.53 500.458ZM1011.13 472.33L1022.1 499.955L1025.82 498.48L1014.85 470.854L1011.13 472.33ZM983.294 469.255L1012.7 473.571L1013.28 469.613L983.875 465.297L983.294 469.255ZM1000.46 442.726L982.016 466.035L985.153 468.517L1003.59 445.207L1000.46 442.726ZM989.202 417.079L1000.17 444.704L1003.89 443.229L992.919 415.603L989.202 417.079ZM1020.76 418.678L991.351 414.362L990.77 418.32L1020.18 422.636L1020.76 418.678ZM1037.34 396.107L1018.9 419.416L1022.04 421.898L1040.48 398.589L1037.34 396.107ZM380.86 1810.31L365.999 1836.05L369.463 1838.05L384.324 1812.31L380.86 1810.31ZM365.999 1786.57L380.86 1812.31L384.324 1810.31L369.463 1784.57L365.999 1786.57ZM397.454 1783.57L367.731 1783.57L367.731 1787.57L397.454 1787.57L397.454 1783.57ZM410.583 1758.83L395.721 1784.57L399.186 1786.57L414.047 1760.83L410.583 1758.83ZM428.908 1784.57L414.047 1758.83L410.583 1760.83L425.444 1786.57L428.908 1784.57ZM456.898 1783.57L427.176 1783.57L427.176 1787.57L456.898 1787.57L456.898 1783.57ZM443.769 1812.31L458.63 1786.57L455.166 1784.57L440.305 1810.31L443.769 1812.31ZM458.63 1836.05L443.769 1810.31L440.305 1812.31L455.166 1838.05L458.63 1836.05ZM427.176 1839.05L456.898 1839.05L456.898 1835.05L427.176 1835.05L427.176 1839.05ZM414.047 1863.8L428.908 1838.05L425.444 1836.05L410.583 1861.8L414.047 1863.8ZM395.722 1838.05L410.583 1863.8L414.047 1861.8L399.186 1836.05L395.722 1838.05ZM367.731 1839.05L397.454 1839.05L397.454 1835.05L367.731 1835.05L367.731 1839.05Z" fill="black" mask="url(#path-3-inside-2_1_30)"/>
<mask id="path-5-inside-3_1_30" fill="white">
<path fill-rule="evenodd" clip-rule="evenodd" d="M1159.29 572.924L1129.57 573.426L1144.87 598.911L1130.44 624.899L1160.16 624.397L1175.46 649.882L1189.88 623.895L1219.6 623.393L1204.3 597.907L1218.73 571.92L1189.01 572.422L1173.72 546.936L1159.29 572.924Z"/>
</mask>
<path fill-rule="evenodd" clip-rule="evenodd" d="M1159.29 572.924L1129.57 573.426L1144.87 598.911L1130.44 624.899L1160.16 624.397L1175.46 649.882L1189.88 623.895L1219.6 623.393L1204.3 597.907L1218.73 571.92L1189.01 572.422L1173.72 546.936L1159.29 572.924Z" fill="#FEC0FF"/>
<path d="M1129.57 573.426L1129.54 571.426L1126.08 571.484L1127.86 574.455L1129.57 573.426ZM1159.29 572.924L1159.33 574.923L1160.48 574.904L1161.04 573.894L1159.29 572.924ZM1144.87 598.911L1146.62 599.882L1147.18 598.872L1146.58 597.882L1144.87 598.911ZM1130.44 624.899L1128.7 623.928L1127.01 626.957L1130.48 626.898L1130.44 624.899ZM1160.16 624.397L1161.88 623.368L1161.28 622.378L1160.13 622.397L1160.16 624.397ZM1175.46 649.882L1173.74 650.911L1175.52 653.882L1177.2 650.853L1175.46 649.882ZM1189.88 623.895L1189.85 621.895L1188.69 621.915L1188.13 622.924L1189.88 623.895ZM1219.6 623.393L1219.63 625.392L1223.1 625.334L1221.31 622.364L1219.6 623.393ZM1204.3 597.907L1202.56 596.937L1202 597.946L1202.59 598.936L1204.3 597.907ZM1218.73 571.92L1220.48 572.89L1222.16 569.861L1218.7 569.92L1218.73 571.92ZM1189.01 572.422L1187.3 573.451L1187.89 574.441L1189.04 574.421L1189.01 572.422ZM1173.72 546.936L1175.43 545.907L1173.65 542.937L1171.97 545.965L1173.72 546.936ZM1129.61 575.425L1159.33 574.923L1159.26 570.924L1129.54 571.426L1129.61 575.425ZM1146.58 597.882L1131.29 572.396L1127.86 574.455L1143.15 599.94L1146.58 597.882ZM1132.19 625.869L1146.62 599.882L1143.12 597.941L1128.7 623.928L1132.19 625.869ZM1160.13 622.397L1130.41 622.899L1130.48 626.898L1160.2 626.396L1160.13 622.397ZM1177.17 648.853L1161.88 623.368L1158.45 625.426L1173.74 650.911L1177.17 648.853ZM1188.13 622.924L1173.71 648.912L1177.2 650.853L1191.63 624.865L1188.13 622.924ZM1219.56 621.393L1189.85 621.895L1189.91 625.894L1219.63 625.392L1219.56 621.393ZM1202.59 598.936L1217.88 624.422L1221.31 622.364L1206.02 596.878L1202.59 598.936ZM1216.98 570.949L1202.56 596.937L1206.05 598.878L1220.48 572.89L1216.98 570.949ZM1189.04 574.421L1218.76 573.919L1218.7 569.92L1188.98 570.422L1189.04 574.421ZM1172 547.965L1187.3 573.451L1190.73 571.392L1175.43 545.907L1172 547.965ZM1161.04 573.894L1175.47 547.907L1171.97 545.965L1157.54 571.953L1161.04 573.894Z" fill="black" mask="url(#path-5-inside-3_1_30)"/>
<path d="M1495.29 329.929L1537.94 466.488L1538.15 467.173L1538.87 467.19L1686.9 470.608L1565.24 551.501L1564.62 551.916L1564.84 552.632L1607.47 689.112L1489.57 602.61L1489 602.196L1488.42 602.583L1366.65 683.551L1415.53 549.184L1415.79 548.48L1415.18 548.036L1297.39 461.613L1445.42 465.032L1446.14 465.048L1446.38 464.374L1495.29 329.929Z" fill="#839EFF" stroke="black" stroke-width="2"/>
<circle cx="1403.5" cy="420.5" r="166.5" fill="#B55F5F" stroke="black" stroke-width="2"/>
<path d="M1270.86 78.1332L1294.33 310.079L1294.4 310.793L1295.1 310.953L1530.37 364.799L1309.63 454.222L1308.93 454.503L1309.01 455.249L1332.47 687.113L1172.5 510.481L1172.03 509.963L1171.38 510.225L950.519 599.699L1072.49 401.118L1072.88 400.479L1072.38 399.923L912.502 223.391L1147.78 277.237L1148.48 277.397L1148.85 276.785L1270.86 78.1332Z" fill="#756C6C" stroke="black" stroke-width="2"/>
<circle cx="961.5" cy="173.5" r="18" fill="#9BF9FF" stroke="black"/>
<circle cx="736.5" cy="191.5" r="18" fill="#9BABFF" stroke="black"/>
<circle cx="474.5" cy="191.5" r="18" fill="#FDFFA3" stroke="black"/>
<circle cx="206.5" cy="253.5" r="18" fill="#329D49" stroke="black"/>
<circle cx="18.5" cy="192.5" r="18" fill="#C47BD7" stroke="black"/>
<path d="M1070.09 439.938C1063.35 465.083 1064.33 489.698 1071.31 509.156C1078.29 528.618 1091.22 542.827 1108.37 547.421C1125.51 552.014 1143.82 546.177 1159.59 532.812C1175.37 519.45 1188.52 498.622 1195.26 473.477C1202 448.332 1201.02 423.717 1194.04 404.259C1187.06 384.797 1174.12 370.588 1156.98 365.994C1139.84 361.401 1121.53 367.238 1105.75 380.603C1089.98 393.965 1076.83 414.793 1070.09 439.938Z" fill="white" stroke="black" stroke-width="2"/>
<path d="M1134.12 459.329C1127.39 484.474 1128.36 509.089 1135.34 528.547C1142.32 548.009 1155.26 562.218 1172.4 566.812C1189.54 571.405 1207.85 565.568 1223.63 552.203C1239.4 538.841 1252.55 518.013 1259.29 492.868C1266.03 467.723 1265.05 443.108 1258.07 423.65C1251.09 404.188 1238.16 389.979 1221.01 385.385C1203.87 380.792 1185.56 386.629 1169.79 399.994C1154.02 413.356 1140.86 434.184 1134.12 459.329Z" fill="white" stroke="black" stroke-width="2"/>
<ellipse cx="14.0213" cy="29.1211" rx="14.0213" ry="29.1211" transform="matrix(-0.965926 -0.258819 -0.258819 0.965926 1129.59 422.383)" fill="black"/>
<ellipse cx="14.0213" cy="29.1211" rx="14.0213" ry="29.1211" transform="matrix(-0.965926 -0.258819 -0.258819 0.965926 1193.62 441.774)" fill="black"/>
</svg>
