<svg width="777" height="542" viewBox="0 0 777 542" fill="none" xmlns="http://www.w3.org/2000/svg">
<circle cx="126" cy="340" r="167.5" fill="#78B6FF" stroke="black" stroke-width="3"/>
<path d="M607.441 188.112L631.645 306.089L631.791 306.801L632.513 306.882L752.196 320.32L647.472 379.796L646.84 380.155L646.986 380.866L671.19 498.844L582.264 417.625L581.727 417.135L581.095 417.494L476.372 476.97L526.136 367.298L526.436 366.636L525.899 366.146L436.973 284.927L556.655 298.365L557.377 298.446L557.677 297.784L607.441 188.112Z" fill="#FF4747" stroke="black" stroke-width="2"/>
<path d="M194.896 15.0672L209.786 87.6491L209.932 88.3608L210.654 88.4419L284.285 96.709L219.857 133.3L219.226 133.659L219.372 134.37L234.262 206.952L179.553 156.985L179.016 156.495L178.385 156.854L113.957 193.445L144.572 125.972L144.873 125.311L144.336 124.821L89.6267 74.8532L163.258 83.1203L163.98 83.2013L164.28 82.5397L194.896 15.0672Z" fill="#FFEE55" stroke="black" stroke-width="2"/>
<rect x="179" y="53" width="476" height="329" rx="40" fill="#4D4D4D" stroke="black" stroke-width="2"/>
<rect x="199.5" y="69.5" width="437" height="297" rx="32.5" fill="white" stroke="black" stroke-width="3"/>
<path d="M271.99 311.574C279.314 338.908 278.252 365.67 270.664 386.829C263.075 407.991 249.002 423.456 230.342 428.456C211.681 433.456 191.762 427.1 174.608 412.567C157.457 398.037 143.156 375.391 135.832 348.058C128.508 320.724 129.57 293.962 137.158 272.804C144.748 251.641 158.82 236.176 177.481 231.176C196.141 226.176 216.06 232.532 233.215 247.065C250.365 261.595 264.666 284.241 271.99 311.574Z" fill="white" stroke="black" stroke-width="2"/>
<path d="M202.42 332.642C209.744 359.975 208.682 386.738 201.094 407.896C193.504 429.059 179.431 444.523 160.771 449.523C142.111 454.523 122.191 448.167 105.037 433.634C87.8865 419.104 73.5857 396.459 66.2617 369.125C58.9377 341.792 59.9998 315.03 67.5877 293.871C75.1772 272.708 89.25 257.244 107.91 252.244C126.57 247.244 146.49 253.6 163.644 268.133C180.795 282.663 195.096 305.308 202.42 332.642Z" fill="white" stroke="black" stroke-width="2"/>
<ellipse cx="230.166" cy="319.141" rx="15.2336" ry="31.6389" transform="rotate(-15 230.166 319.141)" fill="black"/>
<ellipse cx="160.596" cy="340.209" rx="15.2336" ry="31.6389" transform="rotate(-15 160.596 340.209)" fill="black"/>
<circle cx="427" cy="219" r="44.5" fill="#FF999F" stroke="black"/>
<path d="M547.678 112.842L543.605 143.73L543.558 144.09L543.886 144.246L572.003 157.665L541.368 163.336L541.011 163.402L540.964 163.763L536.891 194.651L522.03 167.268L521.857 166.948L521.5 167.015L490.865 172.686L512.315 150.091L512.565 149.827L512.392 149.508L497.532 122.125L525.649 135.544L525.977 135.7L526.227 135.437L547.678 112.842Z" fill="#D99CFF" stroke="black"/>
<path d="M561.304 415L539 248L675 335.295H601.56L561.304 415Z" fill="white" stroke="black" stroke-width="3"/>
<path d="M294 240.18C295.635 213.064 316.622 160.439 369.735 196.251C420.407 230.418 340.858 293.871 414.958 285.193C506.688 274.452 390.44 153.407 430.214 146.357C462.034 140.717 518.663 203.302 543 235.299" stroke="black" stroke-width="2"/>
<path d="M297.5 243C297.5 244.311 296.232 245.5 294.5 245.5C292.768 245.5 291.5 244.311 291.5 243C291.5 241.689 292.768 240.5 294.5 240.5C296.232 240.5 297.5 241.689 297.5 243Z" fill="white" stroke="#0063F7"/>
<path d="M351.5 188C351.5 189.311 350.232 190.5 348.5 190.5C346.768 190.5 345.5 189.311 345.5 188C345.5 186.689 346.768 185.5 348.5 185.5C350.232 185.5 351.5 186.689 351.5 188Z" fill="white" stroke="#0063F7"/>
<path d="M417.5 284.5C417.5 286.232 416.311 287.5 415 287.5C413.689 287.5 412.5 286.232 412.5 284.5C412.5 282.768 413.689 281.5 415 281.5C416.311 281.5 417.5 282.768 417.5 284.5Z" fill="white" stroke="#0063F7"/>
<path d="M452.5 243C452.5 244.381 451.381 245.5 450 245.5C448.619 245.5 447.5 244.381 447.5 243C447.5 241.619 448.619 240.5 450 240.5C451.381 240.5 452.5 241.619 452.5 243Z" fill="white" stroke="#0063F7"/>
<path d="M427.027 147.364L411 155L450 137" stroke="black"/>
<path d="M432.5 146.5C432.5 148.232 431.311 149.5 430 149.5C428.689 149.5 427.5 148.232 427.5 146.5C427.5 144.768 428.689 143.5 430 143.5C431.311 143.5 432.5 144.768 432.5 146.5Z" fill="white" stroke="#0063F7"/>
<path d="M544.5 233.5C544.5 235.232 543.311 236.5 542 236.5C540.689 236.5 539.5 235.232 539.5 233.5C539.5 231.768 540.689 230.5 542 230.5C543.311 230.5 544.5 231.768 544.5 233.5Z" fill="white" stroke="#0063F7"/>
<rect x="409.118" y="153.382" width="2.75938" height="2.75938" transform="rotate(30 409.118 153.382)" fill="#D9D9D9" stroke="#0019FF" stroke-width="0.5"/>
<rect x="450.403" y="134.912" width="2.75938" height="2.75938" transform="rotate(30 450.403 134.912)" fill="#D9D9D9" stroke="#0019FF" stroke-width="0.5"/>
<path d="M315.801 316.054L319.268 265.944L360.931 294.002L315.801 316.054Z" fill="#65E1DA" fill-opacity="0.76" stroke="black"/>
<rect x="294.664" y="103.237" width="60" height="60" transform="rotate(45 294.664 103.237)" fill="#C9EFAB" stroke="black"/>
</svg>
