<svg width="1707" height="1988" viewBox="0 0 1707 1988" fill="none" xmlns="http://www.w3.org/2000/svg">
<mask id="path-1-inside-1_103_761" fill="white">
<path fill-rule="evenodd" clip-rule="evenodd" d="M1533.48 211.701L1502.1 171.868L1484.28 219.753L1435.07 227.804L1466.45 267.637L1448.62 315.521L1497.83 307.469L1529.2 347.301L1547.03 299.417L1596.23 291.366L1564.86 251.533L1582.68 203.649L1533.48 211.701Z"/>
</mask>
<path fill-rule="evenodd" clip-rule="evenodd" d="M1533.48 211.701L1502.1 171.868L1484.28 219.753L1435.07 227.804L1466.45 267.637L1448.62 315.521L1497.83 307.469L1529.2 347.301L1547.03 299.417L1596.23 291.366L1564.86 251.533L1582.68 203.649L1533.48 211.701Z" fill="#AA7070"/>
<path d="M1502.1 171.868L1503.67 170.619L1501.48 167.833L1500.23 171.182L1502.1 171.868ZM1533.48 211.701L1531.91 212.95L1532.63 213.866L1533.78 213.677L1533.48 211.701ZM1484.28 219.753L1484.58 221.729L1485.74 221.54L1486.15 220.439L1484.28 219.753ZM1435.07 227.804L1434.77 225.828L1431.39 226.379L1433.5 229.054L1435.07 227.804ZM1466.45 267.637L1468.32 268.323L1468.71 267.266L1468.02 266.387L1466.45 267.637ZM1448.62 315.521L1446.75 314.834L1445.55 318.049L1448.93 317.497L1448.62 315.521ZM1497.83 307.469L1499.4 306.219L1498.67 305.303L1497.52 305.492L1497.83 307.469ZM1529.2 347.301L1527.63 348.551L1529.83 351.337L1531.07 347.988L1529.2 347.301ZM1547.03 299.417L1546.72 297.441L1545.57 297.63L1545.16 298.731L1547.03 299.417ZM1596.23 291.366L1596.54 293.342L1599.91 292.79L1597.8 290.116L1596.23 291.366ZM1564.86 251.533L1562.99 250.847L1562.59 251.904L1563.28 252.783L1564.86 251.533ZM1582.68 203.649L1584.55 204.336L1585.75 201.121L1582.38 201.673L1582.68 203.649ZM1500.53 173.118L1531.91 212.95L1535.05 210.451L1503.67 170.619L1500.53 173.118ZM1486.15 220.439L1503.97 172.555L1500.23 171.182L1482.41 219.066L1486.15 220.439ZM1435.38 229.781L1484.58 221.729L1483.97 217.776L1434.77 225.828L1435.38 229.781ZM1468.02 266.387L1436.64 226.555L1433.5 229.054L1464.88 268.886L1468.02 266.387ZM1450.49 316.207L1468.32 268.323L1464.58 266.95L1446.75 314.834L1450.49 316.207ZM1497.52 305.492L1448.32 313.544L1448.93 317.497L1498.13 309.446L1497.52 305.492ZM1530.77 346.052L1499.4 306.219L1496.25 308.719L1527.63 348.551L1530.77 346.052ZM1545.16 298.731L1527.33 346.615L1531.07 347.988L1548.9 300.104L1545.16 298.731ZM1595.93 289.389L1546.72 297.441L1547.33 301.394L1596.54 293.342L1595.93 289.389ZM1563.28 252.783L1594.66 292.615L1597.8 290.116L1566.43 250.284L1563.28 252.783ZM1580.81 202.963L1562.99 250.847L1566.73 252.22L1584.55 204.336L1580.81 202.963ZM1533.78 213.677L1582.99 205.626L1582.38 201.673L1533.17 209.724L1533.78 213.677Z" fill="black" mask="url(#path-1-inside-1_103_761)"/>
<mask id="path-3-inside-2_103_761" fill="white">
<path fill-rule="evenodd" clip-rule="evenodd" d="M1040.58 409.63L1051.57 438.109L1081.02 442.559L1062.55 466.589L1073.53 495.068L1044.08 490.618L1025.61 514.648L1014.62 486.169L985.169 481.719L1003.64 457.689L992.657 429.21L1022.11 433.66L1040.58 409.63ZM368.324 1893.84L383.209 1867.3L368.324 1840.77L398.094 1840.77L412.979 1814.23L427.864 1840.77L457.634 1840.77L442.749 1867.3L457.634 1893.84L427.864 1893.84L412.979 1920.37L398.094 1893.84L368.324 1893.84Z"/>
</mask>
<path fill-rule="evenodd" clip-rule="evenodd" d="M1040.58 409.63L1051.57 438.109L1081.02 442.559L1062.55 466.589L1073.53 495.068L1044.08 490.618L1025.61 514.648L1014.62 486.169L985.169 481.719L1003.64 457.689L992.657 429.21L1022.11 433.66L1040.58 409.63ZM368.324 1893.84L383.209 1867.3L368.324 1840.77L398.094 1840.77L412.979 1814.23L427.864 1840.77L457.634 1840.77L442.749 1867.3L457.634 1893.84L427.864 1893.84L412.979 1920.37L398.094 1893.84L368.324 1893.84Z" fill="#70AA7D"/>
<path d="M1051.57 438.109L1049.7 438.818L1050.13 439.914L1051.28 440.089L1051.57 438.109ZM1040.58 409.63L1042.45 408.921L1041.16 405.586L1039 408.4L1040.58 409.63ZM1081.02 442.559L1082.61 443.789L1084.68 441.089L1081.3 440.579L1081.02 442.559ZM1062.55 466.589L1060.96 465.359L1060.28 466.246L1060.69 467.298L1062.55 466.589ZM1073.53 495.068L1073.25 497.048L1076.63 497.558L1075.4 494.359L1073.53 495.068ZM1044.08 490.618L1044.36 488.638L1043.2 488.464L1042.49 489.388L1044.08 490.618ZM1025.61 514.648L1023.74 515.357L1025.03 518.692L1027.19 515.878L1025.61 514.648ZM1014.62 486.169L1016.49 485.46L1016.06 484.364L1014.91 484.189L1014.62 486.169ZM985.169 481.719L983.583 480.489L981.508 483.189L984.887 483.699L985.169 481.719ZM1003.64 457.689L1005.23 458.919L1005.91 458.032L1005.5 456.98L1003.64 457.689ZM992.657 429.21L992.939 427.23L989.561 426.72L990.794 429.919L992.657 429.21ZM1022.11 433.66L1021.83 435.64L1022.99 435.814L1023.7 434.89L1022.11 433.66ZM383.209 1867.3L384.952 1868.29L385.5 1867.32L384.948 1866.33L383.209 1867.3ZM368.324 1893.84L366.581 1892.85L364.901 1895.84L368.339 1895.84L368.324 1893.84ZM368.324 1840.77L368.308 1838.76L364.916 1838.76L366.584 1841.74L368.324 1840.77ZM398.094 1840.77L398.11 1842.77L399.27 1842.77L399.837 1841.76L398.094 1840.77ZM412.979 1814.23L414.718 1813.26L412.971 1810.14L411.236 1813.24L412.979 1814.23ZM427.864 1840.77L426.125 1841.74L426.703 1842.77L427.88 1842.77L427.864 1840.77ZM457.634 1840.77L459.377 1841.76L461.057 1838.76L457.618 1838.76L457.634 1840.77ZM442.749 1867.3L441.006 1866.31L440.457 1867.29L441.01 1868.27L442.749 1867.3ZM457.634 1893.84L457.65 1895.84L461.041 1895.84L459.374 1892.87L457.634 1893.84ZM427.864 1893.84L427.848 1891.84L426.688 1891.84L426.121 1892.85L427.864 1893.84ZM412.979 1920.37L411.24 1921.34L412.987 1924.46L414.722 1921.37L412.979 1920.37ZM398.094 1893.84L399.833 1892.87L399.255 1891.84L398.078 1891.84L398.094 1893.84ZM1053.43 437.4L1042.45 408.921L1038.72 410.339L1049.7 438.818L1053.43 437.4ZM1081.3 440.579L1051.85 436.129L1051.28 440.089L1080.74 444.539L1081.3 440.579ZM1064.14 467.819L1082.61 443.789L1079.43 441.329L1060.96 465.359L1064.14 467.819ZM1075.4 494.359L1064.41 465.879L1060.69 467.298L1071.67 495.777L1075.4 494.359ZM1043.8 492.598L1073.25 497.048L1073.82 493.088L1044.36 488.638L1043.8 492.598ZM1027.19 515.878L1045.66 491.848L1042.49 489.388L1024.02 513.418L1027.19 515.878ZM1012.76 486.878L1023.74 515.357L1027.47 513.939L1016.49 485.46L1012.76 486.878ZM984.887 483.699L1014.34 488.149L1014.91 484.189L985.451 479.739L984.887 483.699ZM1002.05 456.459L983.583 480.489L986.755 482.949L1005.23 458.919L1002.05 456.459ZM990.794 429.919L1001.78 458.399L1005.5 456.98L994.519 428.501L990.794 429.919ZM1022.39 431.68L992.939 427.23L992.375 431.19L1021.83 435.64L1022.39 431.68ZM1039 408.4L1020.53 432.43L1023.7 434.89L1042.17 410.86L1039 408.4ZM381.466 1866.31L366.581 1892.85L370.067 1894.83L384.952 1868.29L381.466 1866.31ZM366.584 1841.74L381.469 1868.27L384.948 1866.33L370.063 1839.8L366.584 1841.74ZM398.078 1838.76L368.308 1838.76L368.339 1842.77L398.11 1842.77L398.078 1838.76ZM411.236 1813.24L396.351 1839.77L399.837 1841.76L414.722 1815.22L411.236 1813.24ZM429.603 1839.8L414.718 1813.26L411.24 1815.2L426.125 1841.74L429.603 1839.8ZM457.618 1838.76L427.848 1838.76L427.88 1842.77L457.65 1842.77L457.618 1838.76ZM444.492 1868.29L459.377 1841.76L455.891 1839.77L441.006 1866.31L444.492 1868.29ZM459.374 1892.87L444.488 1866.33L441.01 1868.27L455.895 1894.81L459.374 1892.87ZM427.88 1895.84L457.65 1895.84L457.618 1891.84L427.848 1891.84L427.88 1895.84ZM414.722 1921.37L429.607 1894.83L426.121 1892.85L411.236 1919.38L414.722 1921.37ZM396.354 1894.81L411.24 1921.34L414.718 1919.4L399.833 1892.87L396.354 1894.81ZM368.339 1895.84L398.11 1895.84L398.078 1891.84L368.308 1891.84L368.339 1895.84Z" fill="black" mask="url(#path-3-inside-2_103_761)"/>
<mask id="path-5-inside-3_103_761" fill="white">
<path fill-rule="evenodd" clip-rule="evenodd" d="M1161.16 590.632L1131.39 591.15L1146.71 617.423L1132.27 644.214L1162.03 643.697L1177.35 669.97L1191.8 643.179L1221.56 642.662L1206.24 616.388L1220.69 589.597L1190.93 590.115L1175.61 563.842L1161.16 590.632Z"/>
</mask>
<path fill-rule="evenodd" clip-rule="evenodd" d="M1161.16 590.632L1131.39 591.15L1146.71 617.423L1132.27 644.214L1162.03 643.697L1177.35 669.97L1191.8 643.179L1221.56 642.662L1206.24 616.388L1220.69 589.597L1190.93 590.115L1175.61 563.842L1161.16 590.632Z" fill="#FEC0FF"/>
<path d="M1131.39 591.15L1131.34 589.13L1127.96 589.188L1129.7 592.167L1131.39 591.15ZM1161.16 590.632L1161.22 592.653L1162.35 592.633L1162.9 591.625L1161.16 590.632ZM1146.71 617.423L1148.45 618.415L1148.99 617.407L1148.41 616.406L1146.71 617.423ZM1132.27 644.214L1130.53 643.222L1128.87 646.295L1132.32 646.235L1132.27 644.214ZM1162.03 643.697L1163.73 642.68L1163.13 641.656L1161.97 641.676L1162.03 643.697ZM1177.35 669.97L1175.65 670.987L1177.43 674.035L1179.09 670.962L1177.35 669.97ZM1191.8 643.179L1191.74 641.159L1190.6 641.179L1190.06 642.187L1191.8 643.179ZM1221.56 642.662L1221.62 644.682L1225 644.623L1223.26 641.645L1221.56 642.662ZM1206.24 616.388L1204.51 615.396L1203.96 616.405L1204.55 617.405L1206.24 616.388ZM1220.69 589.597L1222.43 590.59L1224.09 587.517L1220.63 587.577L1220.69 589.597ZM1190.93 590.115L1189.23 591.132L1189.83 592.156L1190.99 592.135L1190.93 590.115ZM1175.61 563.842L1177.31 562.825L1175.53 559.777L1173.87 562.85L1175.61 563.842ZM1131.45 593.17L1161.22 592.653L1161.1 588.612L1131.34 589.13L1131.45 593.17ZM1148.41 616.406L1133.09 590.133L1129.7 592.167L1145.02 618.44L1148.41 616.406ZM1134 645.206L1148.45 618.415L1144.98 616.431L1130.53 643.222L1134 645.206ZM1161.97 641.676L1132.21 642.194L1132.32 646.235L1162.09 645.717L1161.97 641.676ZM1179.05 668.953L1163.73 642.68L1160.33 644.714L1175.65 670.987L1179.05 668.953ZM1190.06 642.187L1175.61 668.978L1179.09 670.962L1193.53 644.171L1190.06 642.187ZM1221.5 640.641L1191.74 641.159L1191.86 645.2L1221.62 644.682L1221.5 640.641ZM1204.55 617.405L1219.87 643.679L1223.26 641.645L1207.94 615.371L1204.55 617.405ZM1218.96 588.605L1204.51 615.396L1207.98 617.38L1222.43 590.59L1218.96 588.605ZM1190.99 592.135L1220.75 591.618L1220.63 587.577L1190.87 588.095L1190.99 592.135ZM1173.91 564.859L1189.23 591.132L1192.62 589.098L1177.31 562.825L1173.91 564.859ZM1162.9 591.625L1177.34 564.834L1173.87 562.85L1159.42 589.64L1162.9 591.625Z" fill="black" mask="url(#path-5-inside-3_103_761)"/>
<path d="M1497.7 340.113L1540.42 480.889L1540.63 481.582L1541.35 481.599L1689.7 485.125L1567.75 568.581L1567.15 568.994L1567.36 569.696L1610.07 710.451L1491.97 621.269L1491.4 620.836L1490.81 621.242L1368.84 704.717L1417.81 566.141L1418.06 565.451L1417.47 565.009L1299.4 475.849L1447.75 479.375L1448.47 479.392L1448.71 478.709L1497.7 340.113Z" fill="#839EFF" stroke="black" stroke-width="2"/>
<path d="M1572.53 433.498C1572.53 528.34 1497.84 605.175 1405.76 605.175C1313.68 605.175 1238.99 528.34 1238.99 433.498C1238.99 338.655 1313.68 261.82 1405.76 261.82C1497.84 261.82 1572.53 338.655 1572.53 433.498Z" fill="#B55F5F" stroke="black" stroke-width="2"/>
<path d="M1272.91 80.5305L1296.41 319.647L1296.49 320.37L1297.19 320.536L1532.92 376.063L1311.72 468.29L1311.05 468.571L1311.12 469.304L1334.62 708.393L1174.39 526.292L1173.91 525.751L1173.26 526.025L952.023 618.269L1074.22 413.499L1074.59 412.871L1074.1 412.317L913.904 230.25L1149.63 285.777L1150.34 285.943L1150.7 285.324L1272.91 80.5305Z" fill="#756C6C" stroke="black" stroke-width="2"/>
<path d="M981.079 178.863C981.079 189.133 972.993 197.435 963.049 197.435C953.105 197.435 945.019 189.133 945.019 178.863C945.019 168.592 953.105 160.291 963.049 160.291C972.993 160.291 981.079 168.592 981.079 178.863Z" fill="#9BF9FF" stroke="black"/>
<path d="M755.716 197.419C755.716 207.69 747.63 215.991 737.686 215.991C727.742 215.991 719.657 207.69 719.657 197.419C719.657 187.149 727.742 178.847 737.686 178.847C747.63 178.847 755.716 187.149 755.716 197.419Z" fill="#9BABFF" stroke="black"/>
<path d="M493.294 197.419C493.294 207.69 485.208 215.991 475.264 215.991C465.32 215.991 457.234 207.69 457.234 197.419C457.234 187.149 465.32 178.847 475.264 178.847C485.208 178.847 493.294 187.149 493.294 197.419Z" fill="#FDFFA3" stroke="black"/>
<path d="M224.862 261.336C224.862 271.606 216.777 279.907 206.833 279.907C196.889 279.907 188.803 271.606 188.803 261.336C188.803 251.065 196.889 242.764 206.833 242.764C216.777 242.764 224.862 251.065 224.862 261.336Z" fill="#329D49" stroke="black"/>
<path d="M36.5596 198.45C36.5596 208.721 28.4739 217.022 18.5298 217.022C8.58571 217.022 0.5 208.721 0.5 198.45C0.5 188.18 8.58571 179.878 18.5298 179.878C28.4739 179.878 36.5596 188.18 36.5596 198.45Z" fill="#C47BD7" stroke="black"/>
<path d="M1074.83 437.938C1068.1 463.083 1069.07 487.698 1076.05 507.156C1083.03 526.618 1095.97 540.827 1113.11 545.421C1130.25 550.014 1148.56 544.177 1164.34 530.812C1180.11 517.45 1193.26 496.622 1200 471.477C1206.74 446.332 1205.76 421.717 1198.78 402.259C1191.8 382.797 1178.87 368.588 1161.72 363.994C1144.58 359.401 1126.27 365.238 1110.5 378.603C1094.73 391.965 1081.57 412.793 1074.83 437.938Z" fill="white" stroke="black" stroke-width="2"/>
<path d="M1138.87 457.329C1132.13 482.474 1133.11 507.089 1140.09 526.547C1147.07 546.009 1160 560.218 1177.15 564.812C1194.29 569.405 1212.6 563.568 1228.37 550.203C1244.14 536.841 1257.3 516.013 1264.04 490.868C1270.77 465.723 1269.8 441.108 1262.82 421.65C1255.84 402.188 1242.9 387.979 1225.76 383.385C1208.62 378.792 1190.31 384.629 1174.53 397.994C1158.76 411.356 1145.61 432.184 1138.87 457.329Z" fill="white" stroke="black" stroke-width="2"/>
<ellipse cx="14.0213" cy="29.1211" rx="14.0213" ry="29.1211" transform="matrix(-0.965926 -0.258819 -0.258819 0.965926 1134.33 420.383)" fill="black"/>
<ellipse cx="14.0213" cy="29.1211" rx="14.0213" ry="29.1211" transform="matrix(-0.965926 -0.258819 -0.258819 0.965926 1198.37 439.774)" fill="black"/>
<rect x="1235.16" y="337.767" width="8.92125" height="286" transform="rotate(-50.4078 1235.16 337.767)" fill="#FFF967" stroke="black"/>
<path d="M1461.71 506.206L1461.31 511.994L1242.13 330.839L1251.35 330.839L1461.71 506.206Z" fill="#FFF967" stroke="black"/>
<rect x="1010.86" y="658.368" width="53" height="53" transform="rotate(59.6737 1010.86 658.368)" fill="#660043" fill-opacity="0.61" stroke="black" stroke-width="2"/>
<path d="M1304.84 794.884L1388.01 740.098L1393.87 839.518L1304.84 794.884Z" fill="#E1F088" stroke="black" stroke-width="2"/>
<rect x="1060.28" y="1234.03" width="49" height="49" transform="rotate(30 1060.28 1234.03)" fill="#FFDDAA" stroke="black" stroke-width="2"/>
</svg>
