<svg width="573" height="370" viewBox="0 0 573 370" fill="none" xmlns="http://www.w3.org/2000/svg">
<path d="M29.0239 72.3444L126.596 43.5606L102.738 142.453L29.0239 72.3444Z" fill="#88F0AB" stroke="black" stroke-width="2"/>
<path d="M427.413 265.194L466.857 225.323L481.664 279.418L427.413 265.194Z" fill="#8892F0" stroke="black" stroke-width="2"/>
<circle cx="538.5" cy="68.5" r="33.5" fill="#234E46" stroke="black" stroke-width="2"/>
<mask id="path-4-inside-1_103_821" fill="white">
<path fill-rule="evenodd" clip-rule="evenodd" d="M58.1734 333.327L63.8468 323.5L52.5 323.5L52.5 312.153L42.6734 317.827L37 308L31.3266 317.827L21.5 312.153V323.5L10.1532 323.5L15.8266 333.327L6 339L15.8266 344.673L10.1532 354.5H21.5V365.847L31.3266 360.173L37 370L42.6734 360.173L52.5 365.847V354.5H63.8468L58.1734 344.673L68 339L58.1734 333.327Z"/>
</mask>
<path fill-rule="evenodd" clip-rule="evenodd" d="M58.1734 333.327L63.8468 323.5L52.5 323.5L52.5 312.153L42.6734 317.827L37 308L31.3266 317.827L21.5 312.153V323.5L10.1532 323.5L15.8266 333.327L6 339L15.8266 344.673L10.1532 354.5H21.5V365.847L31.3266 360.173L37 370L42.6734 360.173L52.5 365.847V354.5H63.8468L58.1734 344.673L68 339L58.1734 333.327Z" fill="#64AD78"/>
<path d="M58.1734 333.327L56.4413 332.327L55.4413 334.059L57.1734 335.059L58.1734 333.327ZM63.8468 323.5L65.5788 324.5L67.3109 321.5L63.8468 321.5L63.8468 323.5ZM52.5 323.5L50.5 323.5L50.5 325.5L52.5 325.5L52.5 323.5ZM52.5 312.153L54.5 312.153L54.5 308.689L51.5 310.421L52.5 312.153ZM42.6734 317.827L40.9414 318.827L41.9414 320.559L43.6734 319.559L42.6734 317.827ZM37 308L38.7321 307L37 304L35.268 307L37 308ZM31.3266 317.827L30.3266 319.559L32.0586 320.559L33.0586 318.827L31.3266 317.827ZM21.5 312.153L22.5 310.421L19.5 308.689V312.153H21.5ZM21.5 323.5L21.5 325.5L23.5 325.5V323.5H21.5ZM10.1532 323.5L10.1532 321.5L6.68911 321.5L8.42116 324.5L10.1532 323.5ZM15.8266 333.327L16.8266 335.059L18.5587 334.059L17.5587 332.327L15.8266 333.327ZM6 339L5 337.268L2 339L5 340.732L6 339ZM15.8266 344.673L17.5586 345.673L18.5586 343.941L16.8266 342.941L15.8266 344.673ZM10.1532 354.5L8.42116 353.5L6.68911 356.5H10.1532V354.5ZM21.5 354.5H23.5V352.5H21.5V354.5ZM21.5 365.847H19.5V369.311L22.5 367.579L21.5 365.847ZM31.3266 360.173L33.0587 359.173L32.0587 357.441L30.3266 358.441L31.3266 360.173ZM37 370L35.2679 371L37 374L38.7321 371L37 370ZM42.6734 360.173L43.6734 358.441L41.9413 357.441L40.9413 359.173L42.6734 360.173ZM52.5 365.847L51.5 367.579L54.5 369.311V365.847H52.5ZM52.5 354.5V352.5H50.5V354.5H52.5ZM63.8468 354.5V356.5H67.3109L65.5788 353.5L63.8468 354.5ZM58.1734 344.673L57.1734 342.941L55.4414 343.941L56.4414 345.673L58.1734 344.673ZM68 339L69 340.732L72 339L69 337.268L68 339ZM59.9054 334.327L65.5788 324.5L62.1147 322.5L56.4413 332.327L59.9054 334.327ZM63.8468 321.5L52.5 321.5L52.5 325.5L63.8468 325.5L63.8468 321.5ZM54.5 323.5L54.5 312.153L50.5 312.153L50.5 323.5L54.5 323.5ZM51.5 310.421L41.6734 316.095L43.6734 319.559L53.5 313.885L51.5 310.421ZM44.4055 316.827L38.7321 307L35.268 309L40.9414 318.827L44.4055 316.827ZM35.268 307L29.5945 316.827L33.0586 318.827L38.7321 309L35.268 307ZM32.3266 316.095L22.5 310.421L20.5 313.885L30.3266 319.559L32.3266 316.095ZM19.5 312.153V323.5H23.5V312.153H19.5ZM21.5 321.5L10.1532 321.5L10.1532 325.5L21.5 325.5L21.5 321.5ZM8.42116 324.5L14.0946 334.327L17.5587 332.327L11.8853 322.5L8.42116 324.5ZM14.8266 331.595L5 337.268L7 340.732L16.8266 335.059L14.8266 331.595ZM5 340.732L14.8266 346.405L16.8266 342.941L7 337.268L5 340.732ZM14.0945 343.673L8.42116 353.5L11.8853 355.5L17.5586 345.673L14.0945 343.673ZM10.1532 356.5H21.5V352.5H10.1532V356.5ZM19.5 354.5V365.847H23.5V354.5H19.5ZM22.5 367.579L32.3266 361.905L30.3266 358.441L20.5 364.115L22.5 367.579ZM29.5946 361.173L35.2679 371L38.7321 369L33.0587 359.173L29.5946 361.173ZM38.7321 371L44.4054 361.173L40.9413 359.173L35.2679 369L38.7321 371ZM41.6734 361.905L51.5 367.579L53.5 364.115L43.6734 358.441L41.6734 361.905ZM54.5 365.847V354.5H50.5V365.847H54.5ZM52.5 356.5H63.8468V352.5H52.5V356.5ZM65.5788 353.5L59.9055 343.673L56.4414 345.673L62.1147 355.5L65.5788 353.5ZM59.1734 346.405L69 340.732L67 337.268L57.1734 342.941L59.1734 346.405ZM69 337.268L59.1734 331.595L57.1734 335.059L67 340.732L69 337.268Z" fill="black" mask="url(#path-4-inside-1_103_821)"/>
</svg>
