<svg width="777" height="547" viewBox="0 0 777 547" fill="none" xmlns="http://www.w3.org/2000/svg">
<circle cx="554" cy="254" r="27" fill="#EA69FF" stroke="black" stroke-width="2"/>
<rect x="702" y="472" width="74" height="74" fill="#A47B7B" stroke="black" stroke-width="2"/>
<rect x="66" y="276" width="74" height="74" fill="#FFE0A3" stroke="black" stroke-width="2"/>
<mask id="path-4-inside-1_105_1156" fill="white">
<path fill-rule="evenodd" clip-rule="evenodd" d="M52.1734 25.3266L57.8468 15.5L46.5 15.5L46.5 4.15325L36.6734 9.82663L31 0L25.3266 9.82663L15.5 4.15325V15.5L4.15321 15.5L9.82662 25.3266L0 31L9.82659 36.6734L4.15321 46.5H15.5V57.8468L25.3266 52.1734L31 62L36.6734 52.1734L46.5 57.8468V46.5H57.8468L52.1734 36.6734L62 31L52.1734 25.3266Z"/>
</mask>
<path fill-rule="evenodd" clip-rule="evenodd" d="M52.1734 25.3266L57.8468 15.5L46.5 15.5L46.5 4.15325L36.6734 9.82663L31 0L25.3266 9.82663L15.5 4.15325V15.5L4.15321 15.5L9.82662 25.3266L0 31L9.82659 36.6734L4.15321 46.5H15.5V57.8468L25.3266 52.1734L31 62L36.6734 52.1734L46.5 57.8468V46.5H57.8468L52.1734 36.6734L62 31L52.1734 25.3266Z" fill="#A1FFFF"/>
<path d="M52.1734 25.3266L50.4413 24.3266L49.4413 26.0587L51.1734 27.0587L52.1734 25.3266ZM57.8468 15.5L59.5788 16.5L61.3109 13.5L57.8468 13.5L57.8468 15.5ZM46.5 15.5L44.5 15.5L44.5 17.5L46.5 17.5L46.5 15.5ZM46.5 4.15325L48.5 4.15324L48.5 0.689144L45.5 2.42119L46.5 4.15325ZM36.6734 9.82663L34.9414 10.8266L35.9414 12.5587L37.6734 11.5587L36.6734 9.82663ZM31 0L32.7321 -1L31 -4L29.268 -1L31 0ZM25.3266 9.82663L24.3266 11.5587L26.0586 12.5587L27.0586 10.8266L25.3266 9.82663ZM15.5 4.15325L16.5 2.4212L13.5 0.689145V4.15325H15.5ZM15.5 15.5L15.5 17.5L17.5 17.5V15.5H15.5ZM4.15321 15.5L4.15321 13.5L0.689109 13.5L2.42116 16.5L4.15321 15.5ZM9.82662 25.3266L10.8266 27.0587L12.5587 26.0587L11.5587 24.3266L9.82662 25.3266ZM0 31L-1 29.268L-4 31L-1 32.7321L0 31ZM9.82659 36.6734L11.5586 37.6734L12.5586 35.9414L10.8266 34.9414L9.82659 36.6734ZM4.15321 46.5L2.42116 45.5L0.689111 48.5H4.15321V46.5ZM15.5 46.5H17.5V44.5H15.5V46.5ZM15.5 57.8468H13.5V61.3109L16.5 59.5789L15.5 57.8468ZM25.3266 52.1734L27.0587 51.1734L26.0587 49.4414L24.3266 50.4414L25.3266 52.1734ZM31 62L29.2679 63L31 66L32.7321 63L31 62ZM36.6734 52.1734L37.6734 50.4414L35.9413 49.4414L34.9413 51.1734L36.6734 52.1734ZM46.5 57.8468L45.5 59.5789L48.5 61.3109V57.8468H46.5ZM46.5 46.5V44.5H44.5V46.5H46.5ZM57.8468 46.5V48.5H61.3109L59.5788 45.5L57.8468 46.5ZM52.1734 36.6734L51.1734 34.9414L49.4414 35.9414L50.4414 37.6734L52.1734 36.6734ZM62 31L63 32.7321L66 31L63 29.268L62 31ZM53.9054 26.3266L59.5788 16.5L56.1147 14.5L50.4413 24.3266L53.9054 26.3266ZM57.8468 13.5L46.5 13.5L46.5 17.5L57.8468 17.5L57.8468 13.5ZM48.5 15.5L48.5 4.15324L44.5 4.15325L44.5 15.5L48.5 15.5ZM45.5 2.42119L35.6734 8.09458L37.6734 11.5587L47.5 5.8853L45.5 2.42119ZM38.4055 8.82663L32.7321 -1L29.268 1L34.9414 10.8266L38.4055 8.82663ZM29.268 -1L23.5945 8.82663L27.0586 10.8266L32.7321 1L29.268 -1ZM26.3266 8.09458L16.5 2.4212L14.5 5.8853L24.3266 11.5587L26.3266 8.09458ZM13.5 4.15325V15.5H17.5V4.15325H13.5ZM15.5 13.5L4.15321 13.5L4.15321 17.5L15.5 17.5L15.5 13.5ZM2.42116 16.5L8.09457 26.3266L11.5587 24.3266L5.88526 14.5L2.42116 16.5ZM8.82662 23.5946L-1 29.268L1 32.7321L10.8266 27.0587L8.82662 23.5946ZM-1 32.7321L8.82659 38.4055L10.8266 34.9414L1 29.268L-1 32.7321ZM8.09454 35.6734L2.42116 45.5L5.88526 47.5L11.5586 37.6734L8.09454 35.6734ZM4.15321 48.5H15.5V44.5H4.15321V48.5ZM13.5 46.5V57.8468H17.5V46.5H13.5ZM16.5 59.5789L26.3266 53.9055L24.3266 50.4414L14.5 56.1148L16.5 59.5789ZM23.5946 53.1734L29.2679 63L32.7321 61L27.0587 51.1734L23.5946 53.1734ZM32.7321 63L38.4054 53.1734L34.9413 51.1734L29.2679 61L32.7321 63ZM35.6734 53.9055L45.5 59.5789L47.5 56.1148L37.6734 50.4414L35.6734 53.9055ZM48.5 57.8468V46.5H44.5V57.8468H48.5ZM46.5 48.5H57.8468V44.5H46.5V48.5ZM59.5788 45.5L53.9055 35.6734L50.4414 37.6734L56.1147 47.5L59.5788 45.5ZM53.1734 38.4055L63 32.7321L61 29.268L51.1734 34.9414L53.1734 38.4055ZM63 29.268L53.1734 23.5946L51.1734 27.0587L61 32.7321L63 29.268Z" fill="black" mask="url(#path-4-inside-1_105_1156)"/>
</svg>
